<svg xmlns="http://www.w3.org/2000/svg">
   <symbol id="details-arrow" viewBox="0 0 34 34">
      <g clip-path="url(#clip0_8210_202)">
         <path fill-rule="evenodd" clip-rule="evenodd"
            d="M27.2237 18.0372L3.03236 17.8319C2.58011 17.828 2.21793 17.4559 2.22643 17.0037C2.2348 16.558 2.60044 16.2022 3.04616 16.206L27.3725 16.4124L18.0366 6.40095C17.7287 6.07079 17.7468 5.55357 18.077 5.2457C18.4071 4.93783 18.9243 4.95589 19.2322 5.28604L29.7307 16.5443C30.1074 16.9482 30.0853 17.581 29.6814 17.9577L17.7599 29.0746C17.4332 29.3793 16.9213 29.3614 16.6165 29.0346C16.3118 28.7079 16.3297 28.196 16.6565 27.8912L27.2237 18.0372Z" />
      </g>
   </symbol>
   <symbol id="select-arrow" viewBox="0 0 10 17">
      <path
         d="M1.36682 8.64018C0.824047 7.98886 1.2872 7 2.13504 7H7.86496C8.7128 7 9.17595 7.98886 8.63318 8.64018L5.76822 12.0781C5.36843 12.5579 4.63157 12.5579 4.23178 12.0781L1.36682 8.64018Z" />
   </symbol>
   <symbol id="slider-arrow-left" viewBox="0 0 43 43">
      <g clip-path="url(#clip0_8311_244)">
         <path fill-rule="evenodd" clip-rule="evenodd"
            d="M6.80057 22.3831L36.5515 22.056C37.1038 22.05 37.5466 21.5973 37.5405 21.0451C37.5344 20.4928 37.0818 20.0501 36.5296 20.0561L6.63322 20.3848L18.213 8.03258C18.5907 7.62966 18.5703 6.99682 18.1674 6.6191C17.7644 6.24138 17.1316 6.2618 16.7539 6.66472L3.57141 20.7266C3.19369 21.1295 3.21412 21.7623 3.61703 22.14L18.3215 35.925C18.7244 36.3027 19.3573 36.2823 19.735 35.8793C20.1127 35.4764 20.0923 34.8436 19.6894 34.4659L6.80057 22.3831Z" />
      </g>
      <defs>
         <clipPath id="clip0_8311_244">
            <rect width="30" height="30" transform="matrix(-0.707107 -0.707107 -0.707107 0.707107 42.4265 21.2133)" />
         </clipPath>
      </defs>
   </symbol>
   <symbol id="slider-arrow-right" viewBox="0 0 43 43">
      <g clip-path="url(#clip0_8311_313)">
         <path fill-rule="evenodd" clip-rule="evenodd"
            d="M35.6259 22.3831L5.87497 22.056C5.32271 22.05 4.87995 21.5973 4.88602 21.0451C4.89209 20.4928 5.3447 20.0501 5.89695 20.0561L35.7933 20.3848L24.2135 8.03258C23.8358 7.62966 23.8562 6.99682 24.2592 6.6191C24.6621 6.24138 25.2949 6.2618 25.6726 6.66472L38.8551 20.7266C39.2328 21.1295 39.2124 21.7623 38.8095 22.14L24.105 35.925C23.7021 36.3027 23.0692 36.2823 22.6915 35.8793C22.3138 35.4764 22.3342 34.8436 22.7371 34.4659L35.6259 22.3831Z" />
      </g>
      <defs>
         <clipPath id="clip0_8311_313">
            <rect width="30" height="30" transform="translate(0 21.2133) rotate(-45)" />
         </clipPath>
      </defs>
   </symbol>
   <symbol id="show-more-arrow-icon" viewBox="0 0 30 30">
      <path fill-rule="evenodd" clip-rule="evenodd"
         d="M24.7031 25.722L3.22199 5.13588C2.82325 4.75375 2.80978 4.12073 3.19191 3.72199C3.57403 3.32325 4.20706 3.30978 4.6058 3.69191L26.1919 24.3786V7.44733C26.1919 6.89504 26.6396 6.44733 27.1919 6.44733C27.7442 6.44733 28.1919 6.89504 28.1919 7.44733V26.722C28.1919 27.2743 27.7442 27.722 27.1919 27.722H7.03635C6.48406 27.722 6.03635 27.2743 6.03635 26.722C6.03635 26.1697 6.48406 25.722 7.03635 25.722H24.7031Z" />
   </symbol>
   <symbol id="faq-open-icon" viewBox="0 0 38 38">
      <path fill-rule="evenodd" clip-rule="evenodd"
         d="M20 1C20 0.447715 19.5523 0 19 0C18.4477 0 18 0.447715 18 1V18H1C0.447715 18 0 18.4477 0 19C0 19.5523 0.447715 20 1 20H18V37C18 37.5523 18.4477 38 19 38C19.5523 38 20 37.5523 20 37V20H37C37.5523 20 38 19.5523 38 19C38 18.4477 37.5523 18 37 18H20V1Z" />
   </symbol>
</svg>