<svg width="34" height="34" viewBox="0 0 34 34" fill="none" xmlns="http://www.w3.org/2000/svg">
<path d="M30.3254 4.64343H25.9165C26.0865 4.0199 26.0886 3.36252 25.9227 2.73789C25.7568 2.11327 25.4287 1.5436 24.9717 1.08663C24.2716 0.400749 23.3305 0.0166024 22.3504 0.0166024C21.3703 0.0166024 20.4292 0.400749 19.7291 1.08663L16.5521 4.27107L13.3843 1.08663C13.0402 0.742149 12.6316 0.468872 12.1818 0.282421C11.732 0.0959693 11.2499 0 10.763 0C10.2761 0 9.79401 0.0959693 9.34423 0.282421C8.89445 0.468872 8.48583 0.742149 8.14174 1.08663C7.68472 1.5436 7.35664 2.11327 7.19072 2.73789C7.0248 3.36252 7.02696 4.0199 7.19696 4.64343H2.77875C2.04178 4.64343 1.33499 4.93619 0.813877 5.4573C0.29276 5.97842 0 6.68521 0 7.42218V9.27468C0.000276886 9.82507 0.165425 10.3628 0.47415 10.8184C0.782875 11.2741 1.22102 11.6268 1.73209 11.8311V28.4851C1.73551 29.7123 2.22454 30.8883 3.09233 31.7561C3.96012 32.6239 5.13611 33.1129 6.36334 33.1164H26.7408C27.9691 33.1164 29.1471 32.6284 30.0156 31.7599C30.8842 30.8914 31.3721 29.7134 31.3721 28.4851V11.8497C31.8846 11.641 32.3237 11.2849 32.6337 10.8265C32.9437 10.3681 33.1106 9.82804 33.1134 9.27468V7.42218C33.1134 7.05649 33.0413 6.69439 32.901 6.35665C32.7608 6.01891 32.5553 5.71217 32.2963 5.45402C32.0373 5.19587 31.7299 4.99138 31.3916 4.85228C31.0534 4.71318 30.6911 4.64221 30.3254 4.64343ZM9.44775 2.40005C9.79484 2.05502 10.2644 1.86136 10.7538 1.86136C11.2432 1.86136 11.7127 2.05502 12.0598 2.40005L14.3013 4.64343H9.16988C8.95863 4.29228 8.87121 3.88045 8.92159 3.47377C8.97196 3.0671 9.15722 2.68904 9.44775 2.40005ZM14.6996 31.2639H6.36334C5.62637 31.2639 4.91958 30.9711 4.39846 30.45C3.87735 29.9289 3.58459 29.2221 3.58459 28.4851V12.0534H14.6996V31.2639ZM14.6996 10.2009H2.77875C2.53309 10.2009 2.2975 10.1033 2.12379 9.92964C1.95009 9.75593 1.8525 9.52033 1.8525 9.27468V7.42218C1.8525 7.17652 1.95009 6.94092 2.12379 6.76722C2.2975 6.59351 2.53309 6.49593 2.77875 6.49593H14.6996V10.2009ZM21.0537 2.40005C21.3723 2.08328 21.7952 1.89311 22.2436 1.86495C22.692 1.83678 23.1354 1.97255 23.4912 2.24696C23.8469 2.52138 24.0908 2.91573 24.1775 3.3566C24.2641 3.79747 24.1876 4.2548 23.9621 4.64343H18.8121L21.0537 2.40005ZM29.5196 28.4851C29.5196 29.2221 29.2268 29.9289 28.7057 30.45C28.1846 30.9711 27.4778 31.2639 26.7408 31.2639H18.4046V12.0534H29.5196V28.4851ZM31.2609 9.27468C31.2609 9.52033 31.1634 9.75593 30.9896 9.92964C30.8159 10.1033 30.5803 10.2009 30.3347 10.2009H18.4046V6.49593H30.3347C30.5803 6.49593 30.8159 6.59351 30.9896 6.76722C31.1634 6.94092 31.2609 7.17652 31.2609 7.42218V9.27468Z" fill="#704174"/>
</svg>
