<svg width="240" height="79" viewBox="0 0 240 79" fill="none" xmlns="http://www.w3.org/2000/svg">
<path d="M129.66 64.8725C126.93 62.5228 124.294 60.0142 121.754 57.3469C119.277 54.6161 116.959 51.8218 114.8 48.964C112.704 46.1062 110.767 43.2166 108.989 40.2953C107.274 37.3104 105.813 34.3891 104.607 31.5313C102.448 33.881 100.288 36.2626 98.129 38.6758C96.0333 41.0256 94.1598 43.4071 92.5086 45.8204C90.8575 48.1702 89.5238 50.5517 88.5077 52.9649C87.4281 55.3147 86.8883 57.6645 86.8883 60.0142C86.8883 62.8085 87.3646 65.2218 88.3172 67.254C89.2063 69.2228 90.4129 70.8422 91.9371 72.1123C93.4613 73.3825 95.2077 74.3033 97.1764 74.8749C99.1451 75.4465 101.177 75.7322 103.273 75.7322C107.465 75.7322 111.91 74.7479 116.61 72.7792C121.309 70.8104 125.659 68.1749 129.66 64.8725ZM117.848 8.38294C117.848 6.16019 117.34 4.57251 116.324 3.6199C115.371 2.60379 114.323 2.09574 113.18 2.09574C112.228 2.09574 111.211 2.41327 110.132 3.04834C109.116 3.68341 108.163 4.60427 107.274 5.8109C106.448 6.95403 105.75 8.35119 105.178 10.0024C104.607 11.6536 104.321 13.4635 104.321 15.4322C104.321 19.0521 104.988 22.8943 106.321 26.9588C107.909 25.3076 109.402 23.6882 110.799 22.1005C112.196 20.5128 113.402 18.9569 114.419 17.4327C115.498 15.845 116.324 14.3209 116.895 12.8602C117.53 11.336 117.848 9.8436 117.848 8.38294ZM154.523 77.9232C154.523 78.1138 154.396 78.3043 154.142 78.4948C153.888 78.6853 153.507 78.7806 152.999 78.7806C149.189 77.574 145.442 75.891 141.758 73.7318C138.075 71.509 134.487 68.937 130.994 66.0157C128.581 67.8574 126.072 69.5403 123.468 71.0645C120.865 72.5886 118.197 73.8905 115.466 74.9702C112.799 76.0498 110.1 76.8754 107.369 77.4469C104.702 78.0185 102.13 78.3043 99.6532 78.3043C97.2399 78.3043 94.9537 77.955 92.7944 77.2564C90.6352 76.6213 88.7617 75.637 87.174 74.3033C85.5864 72.9062 84.348 71.1915 83.4589 69.1593C82.5063 67.127 82.03 64.7455 82.03 62.0147C82.03 59.0934 82.6968 56.2356 84.0304 53.4412C85.3641 50.5834 87.0788 47.7891 89.1745 45.0583C91.2703 42.3275 93.5883 39.6602 96.1285 37.0564C98.7323 34.4526 101.273 31.9123 103.749 29.4356C101.908 24.482 100.987 20.0047 100.987 16.0038C100.987 13.654 101.4 11.4948 102.225 9.52606C103.114 7.55735 104.226 5.87441 105.559 4.47725C106.893 3.08009 108.354 2.00047 109.941 1.23839C111.593 0.412797 113.148 0 114.609 0C116.324 0 117.88 0.571564 119.277 1.71469C120.674 2.79431 121.373 4.60426 121.373 7.14455C121.373 8.73223 120.96 10.3834 120.134 12.0981C119.372 13.8128 118.324 15.591 116.991 17.4327C115.72 19.2109 114.196 21.0844 112.418 23.0531C110.703 24.9583 108.893 26.927 106.988 28.9592C109.084 34.7384 112.196 40.6128 116.324 46.5825C120.515 52.4886 125.596 58.0138 131.566 63.1578C134.804 60.2365 137.408 57.0294 139.377 53.5365C141.346 50.0436 142.33 46.392 142.33 42.5815C142.33 41.3114 142.139 40.0412 141.758 38.7711C141.441 37.4374 140.774 36.0403 139.758 34.5796C139.758 34.4526 139.948 34.3256 140.33 34.1986C140.711 34.0081 141.06 33.9128 141.377 33.9128C142.266 33.9128 142.965 34.2303 143.473 34.8654C144.045 35.437 144.457 36.1356 144.712 36.9611C145.029 37.7867 145.22 38.6441 145.283 39.5332C145.41 40.3588 145.474 41.0256 145.474 41.5337C145.474 45.7251 144.299 49.7896 141.949 53.727C139.663 57.601 136.678 61.1574 132.994 64.3962C139.155 69.6673 146.109 73.954 153.857 77.2564C154.301 77.5104 154.523 77.7327 154.523 77.9232Z" fill="#FFA55C"/>
<path d="M18.224 43.9075C18.224 41.9235 18.096 40.2755 17.84 38.9635C17.616 37.6515 17.296 36.9955 16.88 36.9955C16.624 36.9955 16.384 37.1875 16.16 37.5715C15.936 37.9235 15.744 38.4355 15.584 39.1075C15.456 39.7475 15.344 40.5155 15.248 41.4115C15.184 42.2755 15.152 43.2195 15.152 44.2435C15.152 46.0675 15.28 48.0355 15.536 50.1475C15.792 52.2275 16.24 54.2435 16.88 56.1955C17.328 54.1475 17.664 52.0515 17.888 49.9075C18.112 47.7315 18.224 45.7315 18.224 43.9075ZM38.336 22.1155C38.336 22.2755 38.272 22.4035 38.144 22.4995C38.016 22.5955 37.856 22.7075 37.664 22.8355C36.704 23.4115 35.92 24.2115 35.312 25.2355C34.704 26.2595 34.208 27.3795 33.824 28.5955C33.472 29.8115 33.232 31.0595 33.104 32.3395C32.976 33.5875 32.912 34.7395 32.912 35.7955C32.912 36.5315 32.944 37.4435 33.008 38.5315C33.104 39.5875 33.2 40.7555 33.296 42.0355C33.424 43.3155 33.52 44.6755 33.584 46.1155C33.68 47.5235 33.728 48.9635 33.728 50.4355C33.728 52.5155 33.6 54.5315 33.344 56.4835C33.12 58.4355 32.656 60.1795 31.952 61.7155C31.28 63.2515 30.336 64.4835 29.12 65.4115C27.904 66.3395 26.32 66.8035 24.368 66.8035C23.472 66.8035 22.624 66.6275 21.824 66.2755C21.056 65.9555 20.336 65.4915 19.664 64.8835C19.024 64.2755 18.432 63.5715 17.888 62.7715C17.376 61.9715 16.912 61.0915 16.496 60.1315C16.08 61.2515 15.584 62.2915 15.008 63.2515C14.464 64.2115 13.856 65.0435 13.184 65.7475C12.512 66.4515 11.776 66.9955 10.976 67.3795C10.176 67.7635 9.328 67.9555 8.432 67.9555C7.056 67.9555 5.888 67.6035 4.928 66.8995C4 66.1955 3.232 65.2675 2.624 64.1155C2.016 62.9955 1.536 61.7155 1.184 60.2755C0.864 58.8035 0.624 57.3155 0.464 55.8115C0.304 54.2755 0.192 52.7875 0.128 51.3475C0.096 49.8755 0.064 48.5795 0.032 47.4595C-0.032 45.4435 0 43.5395 0.128 41.7475C0.288 39.9235 0.464 38.2915 0.656 36.8515C0.848 35.3795 1.04 34.1155 1.232 33.0595C1.424 32.0035 1.552 31.2195 1.616 30.7075C1.648 30.5155 1.84 30.3875 2.192 30.3235C2.576 30.2595 2.912 30.2275 3.2 30.2275C3.424 30.2275 3.616 30.2595 3.776 30.3235C3.936 30.3555 4.016 30.4515 4.016 30.6115C4.016 30.8035 3.936 31.1395 3.776 31.6195C3.616 32.0675 3.376 32.9315 3.056 34.2115C2.928 34.7875 2.784 35.6195 2.624 36.7075C2.496 37.7635 2.368 38.9635 2.24 40.3075C2.144 41.6515 2.064 43.0915 2 44.6275C1.936 46.1315 1.904 47.6035 1.904 49.0435C1.904 50.1635 1.952 51.3955 2.048 52.7395C2.144 54.0515 2.304 55.3635 2.528 56.6755C2.752 57.9555 3.056 59.2035 3.44 60.4195C3.824 61.6355 4.288 62.7075 4.832 63.6355C5.408 64.5635 6.08 65.2995 6.848 65.8435C7.616 66.4195 8.512 66.7075 9.536 66.7075C10.304 66.7075 11.008 66.5155 11.648 66.1315C12.288 65.7475 12.88 65.2035 13.424 64.4995C13.968 63.8275 14.448 63.0275 14.864 62.0995C15.312 61.1715 15.712 60.1635 16.064 59.0755C15.328 57.0595 14.784 54.9155 14.432 52.6435C14.08 50.3715 13.904 48.2755 13.904 46.3555C13.904 44.9475 13.952 43.5555 14.048 42.1795C14.176 40.8035 14.352 39.5715 14.576 38.4835C14.8 37.3955 15.088 36.5155 15.44 35.8435C15.792 35.1715 16.208 34.8355 16.688 34.8355C17.072 34.8355 17.408 35.0755 17.696 35.5555C18.016 36.0355 18.272 36.6915 18.464 37.5235C18.688 38.3555 18.848 39.3475 18.944 40.4995C19.072 41.6195 19.136 42.8355 19.136 44.1475C19.136 46.2595 18.992 48.4835 18.704 50.8195C18.416 53.1235 17.968 55.3795 17.36 57.5875C17.776 58.7075 18.256 59.7475 18.8 60.7075C19.344 61.6355 19.952 62.4515 20.624 63.1555C21.328 63.8595 22.096 64.4035 22.928 64.7875C23.792 65.2035 24.736 65.4115 25.76 65.4115C27.168 65.4115 28.32 65.0595 29.216 64.3555C30.112 63.6835 30.816 62.7555 31.328 61.5715C31.84 60.3555 32.192 58.9635 32.384 57.3955C32.576 55.7955 32.672 54.0835 32.672 52.2595C32.672 50.6275 32.608 48.9475 32.48 47.2195C32.384 45.4915 32.272 43.7795 32.144 42.0835C32.016 40.3555 31.888 38.6915 31.76 37.0915C31.664 35.4595 31.616 33.9555 31.616 32.5795C31.616 31.5875 31.76 30.4355 32.048 29.1235C32.368 27.8115 32.784 26.5795 33.296 25.4275C33.84 24.2435 34.448 23.2515 35.12 22.4515C35.824 21.6195 36.56 21.2035 37.328 21.2035C37.552 21.2035 37.776 21.3155 38 21.5395C38.224 21.7315 38.336 21.9235 38.336 22.1155Z" fill="#FFF9F4"/>
<path d="M53.3236 53.9875C53.3236 53.5075 53.2436 53.1235 53.0836 52.8355C52.9236 52.5155 52.6676 52.3555 52.3156 52.3555C51.7716 52.3555 51.3556 52.6275 51.0676 53.1715C50.7796 53.6835 50.6516 54.3395 50.6836 55.1395C50.7796 56.8355 51.0836 58.2595 51.5956 59.4115C52.1396 58.6755 52.5556 57.8435 52.8436 56.9155C53.1636 55.9875 53.3236 55.0115 53.3236 53.9875ZM66.2836 53.9395C66.0596 54.4195 65.8196 54.9155 65.5636 55.4275C65.3076 55.9075 65.0196 56.3875 64.6996 56.8675C63.0676 59.2995 61.4196 61.1075 59.7556 62.2915C58.0916 63.4755 56.5396 64.0675 55.0996 64.0675C53.2756 64.0675 51.8836 63.2035 50.9236 61.4755C49.8036 62.5955 48.5396 63.4435 47.1316 64.0195C45.7556 64.5955 44.3956 64.8835 43.0516 64.8835C42.2516 64.8835 41.4836 64.7715 40.7476 64.5475C40.0436 64.3235 39.4356 63.9875 38.9236 63.5395C38.3796 63.0595 37.9476 62.4675 37.6276 61.7635C37.3076 61.0275 37.1476 60.1795 37.1476 59.2195C37.1476 58.0675 37.4196 56.8995 37.9636 55.7155C38.4756 54.4995 39.1956 53.4115 40.1236 52.4515C41.0836 51.4595 42.2036 50.6435 43.4836 50.0035C44.7636 49.3635 46.1556 49.0435 47.6596 49.0435C48.8756 49.0435 49.8196 49.2195 50.4916 49.5715C51.1636 49.8915 51.4996 50.1955 51.4996 50.4835C51.4996 50.6115 51.4356 50.7075 51.3076 50.7715C51.1796 50.8355 51.0676 50.8675 50.9716 50.8675C50.9396 50.8355 50.9076 50.8195 50.8756 50.8195H50.8276C50.4436 50.4675 50.0116 50.1955 49.5316 50.0035C49.0516 49.7795 48.3476 49.6675 47.4196 49.6675C46.1716 49.6675 45.0356 49.9395 44.0116 50.4835C43.0196 50.9955 42.1716 51.6835 41.4676 52.5475C40.7636 53.3795 40.2196 54.3075 39.8356 55.3315C39.4516 56.3555 39.2596 57.3635 39.2596 58.3555C39.2596 60.2755 39.7076 61.6675 40.6036 62.5315C41.4996 63.3955 42.6196 63.8275 43.9636 63.8275C45.0516 63.8275 46.1876 63.5555 47.3716 63.0115C48.5556 62.4675 49.6116 61.6995 50.5396 60.7075C50.0276 59.5555 49.7716 58.0515 49.7716 56.1955C49.7716 54.9795 49.9956 53.9235 50.4436 53.0275C50.8916 52.1315 51.5316 51.6835 52.3636 51.6835C53.5156 51.6835 54.0916 52.3555 54.0916 53.6995C54.0916 55.0435 53.8996 56.2595 53.5156 57.3475C53.1316 58.4035 52.6196 59.3635 51.9796 60.2275C52.8756 61.8915 54.1236 62.7235 55.7236 62.7235C56.9396 62.7235 58.2356 62.2115 59.6116 61.1875C61.0196 60.1635 62.3956 58.6755 63.7396 56.7235C64.0596 56.2435 64.3476 55.7475 64.6036 55.2355C64.8596 54.7235 65.1156 54.2115 65.3716 53.6995L66.2836 53.9395Z" fill="#FFF9F4"/>
<path d="M72.9508 32.4835C72.9508 30.6595 72.6467 29.2035 72.0387 28.1155C71.4627 26.9955 70.4867 26.4355 69.1107 26.4355C68.6307 26.4355 68.1827 26.5955 67.7667 26.9155C67.3827 27.2035 67.0468 27.6035 66.7588 28.1155C66.4708 28.6275 66.2467 29.2195 66.0867 29.8915C65.9267 30.5635 65.8467 31.2835 65.8467 32.0515C65.8467 34.1635 65.8628 36.0835 65.8948 37.8115C65.9268 39.5395 65.9588 41.1715 65.9908 42.7075C66.0548 44.2435 66.1187 45.7315 66.1827 47.1715C66.2467 48.6115 66.3107 50.0835 66.3747 51.5875C67.3027 50.3395 68.1668 48.9155 68.9668 47.3155C69.7668 45.6835 70.4548 44.0195 71.0308 42.3235C71.6388 40.5955 72.1028 38.8835 72.4228 37.1875C72.7748 35.4915 72.9508 33.9235 72.9508 32.4835ZM90.3268 53.9395C90.1028 54.4195 89.8628 54.9155 89.6068 55.4275C89.3828 55.9395 89.0948 56.4195 88.7428 56.8675C86.9828 59.3635 84.9828 61.3315 82.7428 62.7715C80.5028 64.1795 78.2787 64.8835 76.0707 64.8835C74.6947 64.8835 73.3828 64.5635 72.1348 63.9235C70.8868 63.3155 69.7828 62.3235 68.8228 60.9475C68.6948 60.7875 68.6308 60.6435 68.6308 60.5155C68.6308 60.2275 68.8227 60.0835 69.2067 60.0835C69.2387 60.0835 69.3507 60.1155 69.5427 60.1795C69.7987 60.1795 70.0868 60.2755 70.4068 60.4675C70.7588 60.6275 71.2548 60.7075 71.8948 60.7075C72.8868 60.7075 73.8147 60.5315 74.6787 60.1795C75.5427 59.8275 76.2787 59.3795 76.8867 58.8355C77.5267 58.2595 78.0227 57.6195 78.3747 56.9155C78.7267 56.1795 78.9027 55.4275 78.9027 54.6595C78.9027 53.6995 78.6468 52.8675 78.1348 52.1635C77.6548 51.4595 76.8227 51.1075 75.6387 51.1075C74.4227 51.1075 73.3027 51.5395 72.2787 52.4035C71.2547 53.2355 70.3268 54.2595 69.4948 55.4755C68.6948 56.6595 68.0067 57.9235 67.4307 59.2675C66.8547 60.5795 66.4228 61.7315 66.1348 62.7235C65.9748 63.2675 65.8308 63.6035 65.7028 63.7315C65.5748 63.8595 65.4308 63.9235 65.2708 63.9235C64.9188 63.9235 64.7587 63.5875 64.7907 62.9155C64.7907 62.6275 64.8068 62.2755 64.8388 61.8595C64.8708 61.4435 64.9028 60.9955 64.9348 60.5155C64.9348 60.0355 64.9507 59.5555 64.9827 59.0755C65.0147 58.5635 65.0307 58.0995 65.0307 57.6835C65.0307 56.2435 64.9988 54.5955 64.9348 52.7395C64.8708 50.8515 64.7907 48.9155 64.6947 46.9315C64.5987 44.9155 64.5188 42.9155 64.4548 40.9315C64.3908 38.9475 64.3587 37.1235 64.3587 35.4595C64.3587 34.1475 64.4548 32.8835 64.6468 31.6675C64.8388 30.4195 65.1427 29.3315 65.5587 28.4035C65.9747 27.4435 66.5028 26.6915 67.1428 26.1475C67.7828 25.5715 68.5348 25.2835 69.3988 25.2835C70.2948 25.2835 71.0467 25.4435 71.6547 25.7635C72.2947 26.0515 72.8068 26.4835 73.1908 27.0595C73.5748 27.6035 73.8468 28.2755 74.0068 29.0755C74.1988 29.8435 74.2948 30.6915 74.2948 31.6195C74.2948 33.2195 74.0707 34.9795 73.6227 36.8995C73.1747 38.7875 72.5827 40.6915 71.8467 42.6115C71.1107 44.5315 70.2627 46.3875 69.3027 48.1795C68.3747 49.9395 67.4148 51.4755 66.4228 52.7875C66.4868 53.7475 66.5188 54.7395 66.5188 55.7635C66.5508 56.7875 66.5988 57.8755 66.6628 59.0275C67.4628 57.2995 68.3427 55.8115 69.3027 54.5635C69.7187 54.0195 70.1827 53.4915 70.6947 52.9795C71.2387 52.4355 71.7987 51.9555 72.3747 51.5395C72.9827 51.1235 73.6228 50.7875 74.2948 50.5315C74.9988 50.2755 75.7348 50.1475 76.5028 50.1475C77.7188 50.1475 78.7748 50.4515 79.6708 51.0595C80.5668 51.6675 81.0147 52.6435 81.0147 53.9875C81.0147 55.2675 80.6947 56.3555 80.0547 57.2515C79.4467 58.1475 78.6787 58.8995 77.7507 59.5075C76.8227 60.0835 75.8307 60.5155 74.7747 60.8035C73.7187 61.0915 72.7588 61.2675 71.8948 61.3315C71.8308 61.3315 71.7988 61.3475 71.7988 61.3795C71.7988 61.4435 71.8467 61.5395 71.9427 61.6675C72.5827 62.4035 73.3028 62.9315 74.1028 63.2515C74.9028 63.5715 75.7347 63.7315 76.5987 63.7315C77.6547 63.7315 78.7268 63.5395 79.8148 63.1555C80.9028 62.7395 81.9428 62.2115 82.9348 61.5715C83.9268 60.8995 84.8388 60.1475 85.6708 59.3155C86.5348 58.4515 87.2388 57.5875 87.7828 56.7235C88.1028 56.2435 88.3908 55.7475 88.6468 55.2355C88.9028 54.7235 89.1587 54.2115 89.4147 53.6995L90.3268 53.9395Z" fill="#FFF9F4"/>
<path d="M97.0936 50.9635C97.0936 50.0995 96.8696 49.3955 96.4216 48.8515C96.0056 48.2755 95.3176 47.9875 94.3576 47.9875C93.8456 47.9875 93.3816 48.1475 92.9656 48.4675C92.5496 48.7875 92.1976 49.2195 91.9096 49.7635C91.6216 50.2755 91.3976 50.8835 91.2376 51.5875C91.0776 52.2915 90.9976 53.0275 90.9976 53.7955C90.9976 55.0115 91.1256 56.0995 91.3816 57.0595C91.6696 57.9875 92.0696 58.8035 92.5816 59.5075C93.2536 58.9635 93.8616 58.3395 94.4056 57.6355C94.9496 56.9315 95.4136 56.1955 95.7976 55.4275C96.2136 54.6595 96.5336 53.8915 96.7576 53.1235C96.9816 52.3555 97.0936 51.6355 97.0936 50.9635ZM109.238 53.9395C109.014 54.4195 108.774 54.9155 108.518 55.4275C108.294 55.9075 108.006 56.3875 107.654 56.8675C106.086 59.1075 104.294 60.8035 102.278 61.9555C100.294 63.0755 98.3896 63.6355 96.5656 63.6355C95.5416 63.6355 94.5816 63.4595 93.6856 63.1075C92.8216 62.7555 92.0696 62.2275 91.4296 61.5235C90.7896 60.8195 90.2776 59.9395 89.8936 58.8835C89.5096 57.8275 89.3176 56.5795 89.3176 55.1395C89.3176 54.1795 89.4616 53.2195 89.7496 52.2595C90.0376 51.2995 90.4216 50.4355 90.9016 49.6675C91.4136 48.8995 91.9896 48.2755 92.6296 47.7955C93.3016 47.3155 94.0056 47.0755 94.7416 47.0755C95.9256 47.0755 96.7896 47.4275 97.3336 48.1315C97.8776 48.8035 98.1496 49.6675 98.1496 50.7235C98.1496 52.1635 97.7016 53.7315 96.8056 55.4275C95.9416 57.0915 94.6936 58.6435 93.0616 60.0835C94.2776 61.4595 95.8456 62.1475 97.7656 62.1475C99.2056 62.1475 100.71 61.7155 102.278 60.8515C103.846 59.9555 105.318 58.5795 106.694 56.7235C107.046 56.2755 107.334 55.7955 107.558 55.2835C107.814 54.7395 108.07 54.2115 108.326 53.6995L109.238 53.9395Z" fill="#FFF9F4"/>
<path d="M150.823 41.8435C149.639 41.8435 148.503 41.9715 147.415 42.2275C146.359 42.4835 145.415 42.7875 144.583 43.1395C143.783 43.4915 143.127 43.8595 142.615 44.2435C142.135 44.6275 141.895 44.9635 141.895 45.2515C141.895 45.6355 142.343 45.8275 143.239 45.8275C144.775 45.8275 146.231 45.4595 147.607 44.7235C149.015 43.9875 150.279 43.0275 151.399 41.8435H150.823ZM164.791 49.0435C164.791 50.6115 164.343 52.3075 163.447 54.1315C162.583 55.9555 161.383 57.7635 159.847 59.5555C158.311 61.3475 156.487 63.0755 154.375 64.7395C152.263 66.4035 149.991 67.8755 147.559 69.1555C145.127 70.4355 142.567 71.4435 139.879 72.1795C137.191 72.9475 134.503 73.3315 131.815 73.3315C131.367 73.3315 130.871 73.3155 130.327 73.2835C129.815 73.2515 129.335 73.1715 128.887 73.0435C128.439 72.9475 128.055 72.7715 127.735 72.5155C127.415 72.2915 127.255 71.9715 127.255 71.5555C127.255 70.9795 127.543 70.4195 128.119 69.8755C128.695 69.3635 129.431 68.8835 130.327 68.4355C131.223 67.9875 132.199 67.5875 133.255 67.2355C134.311 66.8835 135.319 66.5795 136.279 66.3235C137.271 66.0675 138.135 65.8595 138.871 65.6995C139.607 65.5715 140.103 65.5075 140.359 65.5075C140.551 65.5075 140.695 65.5555 140.791 65.6515C140.887 65.7475 140.935 65.8435 140.935 65.9395C140.935 66.0995 140.855 66.1795 140.695 66.1795H140.071C139.239 66.1795 138.183 66.3395 136.903 66.6595C135.623 66.9795 134.375 67.3795 133.159 67.8595C131.943 68.3395 130.903 68.8675 130.039 69.4435C129.175 70.0515 128.743 70.6115 128.743 71.1235C128.743 71.4755 128.855 71.7475 129.079 71.9395C129.335 72.1635 129.639 72.3395 129.991 72.4675C130.343 72.5955 130.711 72.6755 131.095 72.7075C131.479 72.7715 131.815 72.8035 132.103 72.8035C134.375 72.8035 136.695 72.4195 139.063 71.6515C141.463 70.8835 143.783 69.8595 146.023 68.5795C148.295 67.3315 150.423 65.8755 152.407 64.2115C154.423 62.5795 156.183 60.8835 157.687 59.1235C159.191 57.3315 160.375 55.5555 161.239 53.7955C162.103 52.0035 162.535 50.3395 162.535 48.8035C162.535 46.9155 161.751 45.3475 160.183 44.0995C158.647 42.8195 156.103 42.0835 152.551 41.8915C151.111 43.2355 149.527 44.3235 147.799 45.1555C146.103 45.9875 144.375 46.4035 142.615 46.4035C141.367 46.4035 140.743 46.0995 140.743 45.4915C140.743 45.1075 140.999 44.6755 141.511 44.1955C142.055 43.6835 142.791 43.2035 143.719 42.7555C144.679 42.3075 145.815 41.9395 147.127 41.6515C148.439 41.3315 149.879 41.1715 151.447 41.1715H152.023C153.079 39.9235 153.927 38.5635 154.567 37.0915C155.207 35.5875 155.527 34.1155 155.527 32.6755C155.527 31.7155 155.351 30.8035 154.999 29.9395C154.679 29.0435 154.135 28.2755 153.367 27.6355C152.631 26.9955 151.655 26.4835 150.439 26.0995C149.255 25.7155 147.815 25.5235 146.119 25.5235C144.967 25.5235 143.367 25.6835 141.319 26.0035C139.303 26.3235 137.111 26.8195 134.743 27.4915C132.407 28.1315 130.023 28.9475 127.591 29.9395C125.159 30.9315 122.951 32.0835 120.967 33.3955C118.983 34.7075 117.367 36.1955 116.119 37.8595C114.871 39.5235 114.247 41.3635 114.247 43.3795C114.247 43.6355 114.199 43.8595 114.103 44.0515C114.007 44.2115 113.911 44.2915 113.815 44.2915C113.687 44.2915 113.591 44.1635 113.527 43.9075C113.431 43.6195 113.383 43.1555 113.383 42.5155C113.671 40.4355 114.519 38.5475 115.927 36.8515C117.335 35.1555 119.079 33.6515 121.159 32.3395C123.207 30.9955 125.463 29.8435 127.927 28.8835C130.391 27.9235 132.823 27.1395 135.223 26.5315C137.655 25.8915 139.911 25.4275 141.991 25.1395C144.103 24.8195 145.831 24.6595 147.175 24.6595C149.127 24.6595 150.775 24.8515 152.119 25.2355C153.495 25.5875 154.615 26.0835 155.479 26.7235C156.343 27.3315 156.967 28.0675 157.351 28.9315C157.735 29.7955 157.927 30.7075 157.927 31.6675C157.927 33.2355 157.495 34.8675 156.631 36.5635C155.799 38.2275 154.663 39.7795 153.223 41.2195C155.271 41.3155 157.031 41.5875 158.503 42.0355C159.975 42.4515 161.175 43.0115 162.103 43.7155C163.031 44.3875 163.703 45.1875 164.119 46.1155C164.567 47.0115 164.791 47.9875 164.791 49.0435ZM139.351 61.6675C139.351 62.1155 139.319 62.4355 139.255 62.6275C139.191 62.8195 139.015 62.9155 138.727 62.9155C138.087 62.9795 137.767 62.3395 137.767 60.9955C137.735 56.5795 137.687 52.5475 137.623 48.8995C137.591 45.2515 137.543 42.0995 137.479 39.4435C137.447 36.7555 137.415 34.6275 137.383 33.0595C137.351 31.4915 137.335 30.5955 137.335 30.3715C137.335 30.1155 137.415 29.9395 137.575 29.8435C137.735 29.7475 137.927 29.6675 138.151 29.6035C138.407 29.6035 138.599 29.6835 138.727 29.8435C138.887 30.0035 138.967 30.1955 138.967 30.4195C138.967 32.9795 138.983 35.6195 139.015 38.3395C139.047 41.0275 139.079 43.7155 139.111 46.4035C139.175 49.0915 139.223 51.7315 139.255 54.3235C139.319 56.9155 139.351 59.3635 139.351 61.6675Z" fill="#FFF9F4"/>
<path d="M183.449 53.9875C183.449 53.5075 183.369 53.1235 183.209 52.8355C183.049 52.5155 182.793 52.3555 182.441 52.3555C181.897 52.3555 181.481 52.6275 181.193 53.1715C180.905 53.6835 180.777 54.3395 180.809 55.1395C180.905 56.8355 181.209 58.2595 181.721 59.4115C182.265 58.6755 182.681 57.8435 182.969 56.9155C183.289 55.9875 183.449 55.0115 183.449 53.9875ZM196.409 53.9395C196.185 54.4195 195.945 54.9155 195.689 55.4275C195.433 55.9075 195.145 56.3875 194.825 56.8675C193.193 59.2995 191.545 61.1075 189.881 62.2915C188.217 63.4755 186.665 64.0675 185.225 64.0675C183.401 64.0675 182.009 63.2035 181.049 61.4755C179.929 62.5955 178.665 63.4435 177.257 64.0195C175.881 64.5955 174.521 64.8835 173.177 64.8835C172.377 64.8835 171.609 64.7715 170.873 64.5475C170.169 64.3235 169.561 63.9875 169.049 63.5395C168.505 63.0595 168.073 62.4675 167.753 61.7635C167.433 61.0275 167.273 60.1795 167.273 59.2195C167.273 58.0675 167.545 56.8995 168.089 55.7155C168.601 54.4995 169.321 53.4115 170.249 52.4515C171.209 51.4595 172.329 50.6435 173.609 50.0035C174.889 49.3635 176.281 49.0435 177.785 49.0435C179.001 49.0435 179.945 49.2195 180.617 49.5715C181.289 49.8915 181.625 50.1955 181.625 50.4835C181.625 50.6115 181.561 50.7075 181.433 50.7715C181.305 50.8355 181.193 50.8675 181.097 50.8675C181.065 50.8355 181.033 50.8195 181.001 50.8195H180.953C180.569 50.4675 180.137 50.1955 179.657 50.0035C179.177 49.7795 178.473 49.6675 177.545 49.6675C176.297 49.6675 175.161 49.9395 174.137 50.4835C173.145 50.9955 172.297 51.6835 171.593 52.5475C170.889 53.3795 170.345 54.3075 169.961 55.3315C169.577 56.3555 169.385 57.3635 169.385 58.3555C169.385 60.2755 169.833 61.6675 170.729 62.5315C171.625 63.3955 172.745 63.8275 174.089 63.8275C175.177 63.8275 176.313 63.5555 177.497 63.0115C178.681 62.4675 179.737 61.6995 180.665 60.7075C180.153 59.5555 179.897 58.0515 179.897 56.1955C179.897 54.9795 180.121 53.9235 180.569 53.0275C181.017 52.1315 181.657 51.6835 182.489 51.6835C183.641 51.6835 184.217 52.3555 184.217 53.6995C184.217 55.0435 184.025 56.2595 183.641 57.3475C183.257 58.4035 182.745 59.3635 182.105 60.2275C183.001 61.8915 184.249 62.7235 185.849 62.7235C187.065 62.7235 188.361 62.2115 189.737 61.1875C191.145 60.1635 192.521 58.6755 193.865 56.7235C194.185 56.2435 194.473 55.7475 194.729 55.2355C194.985 54.7235 195.241 54.2115 195.497 53.6995L196.409 53.9395Z" fill="#FFF9F4"/>
<path d="M203.076 32.4835C203.076 30.6595 202.772 29.2035 202.164 28.1155C201.588 26.9955 200.612 26.4355 199.236 26.4355C198.756 26.4355 198.308 26.5955 197.892 26.9155C197.508 27.2035 197.172 27.6035 196.884 28.1155C196.596 28.6275 196.372 29.2195 196.212 29.8915C196.052 30.5635 195.972 31.2835 195.972 32.0515C195.972 34.1635 195.988 36.0835 196.02 37.8115C196.052 39.5395 196.084 41.1715 196.116 42.7075C196.18 44.2435 196.244 45.7315 196.308 47.1715C196.372 48.6115 196.436 50.0835 196.5 51.5875C197.428 50.3395 198.292 48.9155 199.092 47.3155C199.892 45.6835 200.58 44.0195 201.156 42.3235C201.764 40.5955 202.228 38.8835 202.548 37.1875C202.9 35.4915 203.076 33.9235 203.076 32.4835ZM220.452 53.9395C220.228 54.4195 219.988 54.9155 219.732 55.4275C219.508 55.9395 219.22 56.4195 218.868 56.8675C217.108 59.3635 215.108 61.3315 212.868 62.7715C210.628 64.1795 208.404 64.8835 206.196 64.8835C204.82 64.8835 203.508 64.5635 202.26 63.9235C201.012 63.3155 199.908 62.3235 198.948 60.9475C198.82 60.7875 198.756 60.6435 198.756 60.5155C198.756 60.2275 198.948 60.0835 199.332 60.0835C199.364 60.0835 199.476 60.1155 199.668 60.1795C199.924 60.1795 200.212 60.2755 200.532 60.4675C200.884 60.6275 201.38 60.7075 202.02 60.7075C203.012 60.7075 203.94 60.5315 204.804 60.1795C205.668 59.8275 206.404 59.3795 207.012 58.8355C207.652 58.2595 208.148 57.6195 208.5 56.9155C208.852 56.1795 209.028 55.4275 209.028 54.6595C209.028 53.6995 208.772 52.8675 208.26 52.1635C207.78 51.4595 206.948 51.1075 205.764 51.1075C204.548 51.1075 203.428 51.5395 202.404 52.4035C201.38 53.2355 200.452 54.2595 199.62 55.4755C198.82 56.6595 198.132 57.9235 197.556 59.2675C196.98 60.5795 196.548 61.7315 196.26 62.7235C196.1 63.2675 195.956 63.6035 195.828 63.7315C195.7 63.8595 195.556 63.9235 195.396 63.9235C195.044 63.9235 194.884 63.5875 194.916 62.9155C194.916 62.6275 194.932 62.2755 194.964 61.8595C194.996 61.4435 195.028 60.9955 195.06 60.5155C195.06 60.0355 195.076 59.5555 195.108 59.0755C195.14 58.5635 195.156 58.0995 195.156 57.6835C195.156 56.2435 195.124 54.5955 195.06 52.7395C194.996 50.8515 194.916 48.9155 194.82 46.9315C194.724 44.9155 194.644 42.9155 194.58 40.9315C194.516 38.9475 194.484 37.1235 194.484 35.4595C194.484 34.1475 194.58 32.8835 194.772 31.6675C194.964 30.4195 195.268 29.3315 195.684 28.4035C196.1 27.4435 196.628 26.6915 197.268 26.1475C197.908 25.5715 198.66 25.2835 199.524 25.2835C200.42 25.2835 201.172 25.4435 201.78 25.7635C202.42 26.0515 202.932 26.4835 203.316 27.0595C203.7 27.6035 203.972 28.2755 204.132 29.0755C204.324 29.8435 204.42 30.6915 204.42 31.6195C204.42 33.2195 204.196 34.9795 203.748 36.8995C203.3 38.7875 202.708 40.6915 201.972 42.6115C201.236 44.5315 200.388 46.3875 199.428 48.1795C198.5 49.9395 197.54 51.4755 196.548 52.7875C196.612 53.7475 196.644 54.7395 196.644 55.7635C196.676 56.7875 196.724 57.8755 196.788 59.0275C197.588 57.2995 198.468 55.8115 199.428 54.5635C199.844 54.0195 200.308 53.4915 200.82 52.9795C201.364 52.4355 201.924 51.9555 202.5 51.5395C203.108 51.1235 203.748 50.7875 204.42 50.5315C205.124 50.2755 205.86 50.1475 206.628 50.1475C207.844 50.1475 208.9 50.4515 209.796 51.0595C210.692 51.6675 211.14 52.6435 211.14 53.9875C211.14 55.2675 210.82 56.3555 210.18 57.2515C209.572 58.1475 208.804 58.8995 207.876 59.5075C206.948 60.0835 205.956 60.5155 204.9 60.8035C203.844 61.0915 202.884 61.2675 202.02 61.3315C201.956 61.3315 201.924 61.3475 201.924 61.3795C201.924 61.4435 201.972 61.5395 202.068 61.6675C202.708 62.4035 203.428 62.9315 204.228 63.2515C205.028 63.5715 205.86 63.7315 206.724 63.7315C207.78 63.7315 208.852 63.5395 209.94 63.1555C211.028 62.7395 212.068 62.2115 213.06 61.5715C214.052 60.8995 214.964 60.1475 215.796 59.3155C216.66 58.4515 217.364 57.5875 217.908 56.7235C218.228 56.2435 218.516 55.7475 218.772 55.2355C219.028 54.7235 219.284 54.2115 219.54 53.6995L220.452 53.9395Z" fill="#FFF9F4"/>
<path d="M227.219 50.9635C227.219 50.0995 226.995 49.3955 226.547 48.8515C226.131 48.2755 225.443 47.9875 224.483 47.9875C223.971 47.9875 223.507 48.1475 223.091 48.4675C222.675 48.7875 222.323 49.2195 222.035 49.7635C221.747 50.2755 221.523 50.8835 221.363 51.5875C221.203 52.2915 221.123 53.0275 221.123 53.7955C221.123 55.0115 221.251 56.0995 221.507 57.0595C221.795 57.9875 222.195 58.8035 222.707 59.5075C223.379 58.9635 223.987 58.3395 224.531 57.6355C225.075 56.9315 225.539 56.1955 225.923 55.4275C226.339 54.6595 226.659 53.8915 226.883 53.1235C227.107 52.3555 227.219 51.6355 227.219 50.9635ZM239.363 53.9395C239.139 54.4195 238.899 54.9155 238.643 55.4275C238.419 55.9075 238.131 56.3875 237.779 56.8675C236.211 59.1075 234.419 60.8035 232.403 61.9555C230.419 63.0755 228.515 63.6355 226.691 63.6355C225.667 63.6355 224.707 63.4595 223.811 63.1075C222.947 62.7555 222.195 62.2275 221.555 61.5235C220.915 60.8195 220.403 59.9395 220.019 58.8835C219.635 57.8275 219.443 56.5795 219.443 55.1395C219.443 54.1795 219.587 53.2195 219.875 52.2595C220.163 51.2995 220.547 50.4355 221.027 49.6675C221.539 48.8995 222.115 48.2755 222.755 47.7955C223.427 47.3155 224.131 47.0755 224.867 47.0755C226.051 47.0755 226.915 47.4275 227.459 48.1315C228.003 48.8035 228.275 49.6675 228.275 50.7235C228.275 52.1635 227.827 53.7315 226.931 55.4275C226.067 57.0915 224.819 58.6435 223.187 60.0835C224.403 61.4595 225.971 62.1475 227.891 62.1475C229.331 62.1475 230.835 61.7155 232.403 60.8515C233.971 59.9555 235.443 58.5795 236.819 56.7235C237.171 56.2755 237.459 55.7955 237.683 55.2835C237.939 54.7395 238.195 54.2115 238.451 53.6995L239.363 53.9395Z" fill="#FFF9F4"/>
</svg>
